HIERARCHY
ROOT Hips
{
  OFFSET 5.80788e-005 67.184 3.4734
  CHANNELS 6 Xposition Yposition Zposition Zrotation Xrotation Yrotation
  JOINT Chest
  {
    OFFSET 0 8.7983 -4.7612
    CHANNELS 3 Zrotation Xrotation Yrotation
    JOINT Chest2
    {
      OFFSET 0 8.0291 0.4195
      CHANNELS 3 Zrotation Xrotation Yrotation
      JOINT Chest3
      {
        OFFSET 0 9.9351 -2.2114
        CHANNELS 3 Zrotation Xrotation Yrotation
        JOINT Neck
        {
          OFFSET 0 22.3885 -0.4656
          CHANNELS 3 Zrotation Xrotation Yrotation
          JOINT Head
          {
            OFFSET -0.0001 12.643 3.4389
            CHANNELS 3 Zrotation Xrotation Yrotation
            End Site
            {
              OFFSET 0.0001 17.6655 0.5274
            }
          }
        }
        JOINT LeftCollar
        {
          OFFSET 2.2603 21.606 7.4023
          CHANNELS 3 Zrotation Xrotation Yrotation
          JOINT LeftShoulder
          {
            OFFSET 13.5163 -1.1332 -5.0146
            CHANNELS 3 Zrotation Xrotation Yrotation
            JOINT LeftElbow
            {
              OFFSET -0.0995 -28.05 -0.2431
              CHANNELS 3 Zrotation Xrotation Yrotation
              JOINT LeftWrist
              {
                OFFSET 0.0679 -23.3996 -0.1402
                CHANNELS 3 Zrotation Xrotation Yrotation
                JOINT LeftFinger1
                {
                  OFFSET 0.7932 -9.069 2.5189
                  CHANNELS 3 Zrotation Xrotation Yrotation
                  JOINT LeftFinger11
                  {
                    OFFSET -0.8272 -3.3923 0.5977
                    CHANNELS 3 Zrotation Xrotation Yrotation
                    JOINT LeftFinger12
                    {
                      OFFSET -0.5649 -2.3158 0.4082
                      CHANNELS 3 Zrotation Xrotation Yrotation
                      End Site
                      {
                        OFFSET -0.4919 -1.6479 0.2673
                      }
                    }
                  }
                }
                JOINT LeftFinger2
                {
                  OFFSET 0.9159 -9.2044 0.2193
                  CHANNELS 3 Zrotation Xrotation Yrotation
                  JOINT LeftFinger21
                  {
                    OFFSET 0.0117 -4.1944 -0.0248
                    CHANNELS 3 Zrotation Xrotation Yrotation
                    JOINT LeftFinger22
                    {
                      OFFSET 0.0071 -2.3249 -0.0142
                      CHANNELS 3 Zrotation Xrotation Yrotation
                      End Site
                      {
                        OFFSET -0.1475 -2.0882 0.0028
                      }
                    }
                  }
                }
                JOINT LeftFinger3
                {
                  OFFSET 0.6113 -8.7231 -2.0637
                  CHANNELS 3 Zrotation Xrotation Yrotation
                  JOINT LeftFinger31
                  {
                    OFFSET -0.1927 -3.8059 -0.2383
                    CHANNELS 3 Zrotation Xrotation Yrotation
                    JOINT LeftFinger32
                    {
                      OFFSET -0.1091 -2.1688 -0.1362
                      CHANNELS 3 Zrotation Xrotation Yrotation
                      End Site
                      {
                        OFFSET -0.2358 -1.9176 -0.0906
                      }
                    }
                  }
                }
                JOINT LeftFinger4
                {
                  OFFSET -0.6151 -8.0947 -3.5641
                  CHANNELS 3 Zrotation Xrotation Yrotation
                  JOINT LeftFinger41
                  {
                    OFFSET -0.4882 -2.341 -0.6462
                    CHANNELS 3 Zrotation Xrotation Yrotation
                    JOINT LeftFinger42
                    {
                      OFFSET -0.3575 -1.7167 -0.4742
                      CHANNELS 3 Zrotation Xrotation Yrotation
                      End Site
                      {
                        OFFSET -0.4187 -1.5237 -0.3496
                      }
                    }
                  }
                }
                JOINT LeftFinger0
                {
                  OFFSET -1.42 -1.8761 1.4223
                  CHANNELS 3 Zrotation Xrotation Yrotation
                  JOINT LeftFinger01
                  {
                    OFFSET -1.1471 -3.4929 2.6334
                    CHANNELS 3 Zrotation Xrotation Yrotation
                    JOINT LeftFinger02
                    {
                      OFFSET -0.823 -2.3 1.6571
                      CHANNELS 3 Zrotation Xrotation Yrotation
                      End Site
                      {
                        OFFSET -0.5822 -1.6914 1.1582
                      }
                    }
                  }
                }
              }
            }
          }
        }
        JOINT RightCollar
        {
          OFFSET -2.2603 21.606 7.4023
          CHANNELS 3 Zrotation Xrotation Yrotation
          JOINT RightShoulder
          {
            OFFSET -13.5187 -1.1334 -5.0155
            CHANNELS 3 Zrotation Xrotation Yrotation
            JOINT RightElbow
            {
              OFFSET 0.0994 -28.0499 -0.2431
              CHANNELS 3 Zrotation Xrotation Yrotation
              JOINT RightWrist
              {
                OFFSET -0.0679 -23.3996 -0.1402
                CHANNELS 3 Zrotation Xrotation Yrotation
                JOINT RightFinger1
                {
                  OFFSET -0.7932 -9.0691 2.5189
                  CHANNELS 3 Zrotation Xrotation Yrotation
                  JOINT RightFinger11
                  {
                    OFFSET 0.8272 -3.3923 0.5977
                    CHANNELS 3 Zrotation Xrotation Yrotation
                    JOINT RightFinger12
                    {
                      OFFSET 0.565 -2.3158 0.4082
                      CHANNELS 3 Zrotation Xrotation Yrotation
                      End Site
                      {
                        OFFSET 0.4919 -1.6479 0.2673
                      }
                    }
                  }
                }
                JOINT RightFinger2
                {
                  OFFSET -0.916 -9.2044 0.2193
                  CHANNELS 3 Zrotation Xrotation Yrotation
                  JOINT RightFinger21
                  {
                    OFFSET -0.0117 -4.1944 -0.0248
                    CHANNELS 3 Zrotation Xrotation Yrotation
                    JOINT RightFinger22
                    {
                      OFFSET -0.0071 -2.3249 -0.0142
                      CHANNELS 3 Zrotation Xrotation Yrotation
                      End Site
                      {
                        OFFSET 0.1475 -2.0882 0.0028
                      }
                    }
                  }
                }
                JOINT RightFinger3
                {
                  OFFSET -0.6113 -8.7231 -2.0637
                  CHANNELS 3 Zrotation Xrotation Yrotation
                  JOINT RightFinger31
                  {
                    OFFSET 0.1927 -3.8059 -0.2383
                    CHANNELS 3 Zrotation Xrotation Yrotation
                    JOINT RightFinger32
                    {
                      OFFSET 0.1091 -2.1688 -0.1362
                      CHANNELS 3 Zrotation Xrotation Yrotation
                      End Site
                      {
                        OFFSET 0.2358 -1.9176 -0.0906
                      }
                    }
                  }
                }
                JOINT RightFinger4
                {
                  OFFSET 0.6151 -8.0947 -3.564
                  CHANNELS 3 Zrotation Xrotation Yrotation
                  JOINT RightFinger41
                  {
                    OFFSET 0.4882 -2.341 -0.6462
                    CHANNELS 3 Zrotation Xrotation Yrotation
                    JOINT RightFinger42
                    {
                      OFFSET 0.3574 -1.7166 -0.4742
                      CHANNELS 3 Zrotation Xrotation Yrotation
                      End Site
                      {
                        OFFSET 0.4187 -1.5237 -0.3496
                      }
                    }
                  }
                }
                JOINT RightFinger0
                {
                  OFFSET 1.4199 -1.8761 1.4221
                  CHANNELS 3 Zrotation Xrotation Yrotation
                  JOINT RightFinger01
                  {
                    OFFSET 1.1472 -3.4929 2.6336
                    CHANNELS 3 Zrotation Xrotation Yrotation
                    JOINT RightFinger02
                    {
                      OFFSET 0.8229 -2.3 1.6571
                      CHANNELS 3 Zrotation Xrotation Yrotation
                      End Site
                      {
                        OFFSET 0.5822 -1.6914 1.1582
                      }
                    }
                  }
                }
              }
            }
          }
        }
      }
    }
  }
  JOINT RightHip
  {
    OFFSET -9.412 3.9771 -0.7758
    CHANNELS 3 Zrotation Xrotation Yrotation
    JOINT RightKnee
    {
      OFFSET -0.7531 -40.938 0
      CHANNELS 3 Zrotation Xrotation Yrotation
      JOINT RightAnkle
      {
        OFFSET 0 -40.1986 0
        CHANNELS 3 Zrotation Xrotation Yrotation
        JOINT RightToe
        {
          OFFSET 0 -4.4182 9.239
          CHANNELS 3 Zrotation Xrotation Yrotation
          End Site
          {
            OFFSET 0 0 6.1981
          }
        }
      }
    }
  }
  JOINT LeftHip
  {
    OFFSET 9.4119 3.9773 -0.7758
    CHANNELS 3 Zrotation Xrotation Yrotation
    JOINT LeftKnee
    {
      OFFSET 0.7532 -40.9383 0
      CHANNELS 3 Zrotation Xrotation Yrotation
      JOINT LeftAnkle
      {
        OFFSET 0 -40.1986 0
        CHANNELS 3 Zrotation Xrotation Yrotation
        JOINT LeftToe
        {
          OFFSET 0 -4.4182 9.239
          CHANNELS 3 Zrotation Xrotation Yrotation
          End Site
          {
            OFFSET 0 0 6.1981
          }
        }
      }
    }
  }
}
MOTION
Frames:	4
Frame Time:	0.0333333
-0.928526 3.03548 10.1492 -0 -87.8575 -0 0.569625 -1.38083 -0.465948 1.12848 -2.76617 -0.918535 1.12848 -2.76618 -0.918535 19.4593 1.78056 0.369889 9.36942 -2.9883 0.84761 -25.2256 0.44767 -30.6619 37.2441 -7.13163 27.1276 0.0725981 -22.5543 -5.88752 -49.5221 9.07096 -7.13546 -4.66924e-006 1.02899e-005 5.8789e-006 8.46065e-008 -1.20661e-005 -1.12039e-006 -4.46711e-006 -2.30091e-006 -3.33779e-006 -4.66924e-006 1.02899e-005 5.8789e-006 -0.0128107 0.00230824 7.31778e-005 -3.70882e-008 3.56318e-006 3.76805e-006 -4.66924e-006 1.02899e-005 5.8789e-006 -0.0160331 0.00298551 0.00085502 -3.18055e-015 -3.18055e-015 -7.95139e-015 -4.66924e-006 1.02899e-005 5.8789e-006 -0.0125522 0.00309998 0.00282333 -2.21795e-006 6.28579e-007 -5.15671e-006 -4.66924e-006 1.02899e-005 5.8789e-006 8.46065e-008 -1.20661e-005 -1.12039e-006 -4.46711e-006 -2.30091e-006 -3.33779e-006 17.5044 -18.3212 0.936621 -30.0875 -5.44334 -20.5811 80.3065 -45.8119 60.0057 27.0194 5.81538 0.695236 -1.59028e-015 -2.54444e-014 -1.59028e-015 2.03077e-006 1.94573e-006 -3.10316e-006 3.77691e-015 -3.18055e-014 2.38542e-015 -1.59028e-015 -2.54444e-014 -1.59028e-015 0.0129636 0.00232452 -8.5915e-005 8.54774e-015 0 -7.95139e-016 -1.59028e-015 -2.54444e-014 -1.59028e-015 0.0163239 0.00303367 -0.000874277 1.12313e-014 0 -1.59028e-015 -1.59028e-015 -2.54444e-014 -1.59028e-015 0.0145585 0.00367432 -0.00325771 -3.37934e-015 -1.59028e-015 1.59028e-015 -1.59028e-015 -2.54444e-014 -1.59028e-015 2.03077e-006 1.94573e-006 -3.10316e-006 3.77691e-015 -3.18055e-014 2.38542e-015 -0.663743 -8.03857 11.1276 13.4317 32.1567 -25.34 4.61212 18.9761 -6.93594 -5.73508e-007 -9.05956e-008 -6.3214e-007 2.71905 -10.142 -5.01955 -15.1511 37.6129 26.9021 5.84341 19.6966 -1.78265 -1.3461e-007 -2.98054e-006 2.98083e-007 
-0.928462 2.95797 10.1579 4.43593e-006 -87.7071 4.56498e-006 0.569823 -1.46924 -0.461027 1.12836 -2.94294 -0.907857 1.12836 -2.94294 -0.907858 19.5405 1.63761 0.367364 9.45723 -3.08956 0.851887 -25.2802 0.636292 -30.5636 37.2441 -7.13164 27.1276 0.0725783 -22.5543 -5.88752 -49.5221 9.07099 -7.13548 -3.18055e-015 -3.18055e-015 4.77083e-015 -0 0 3.18055e-015 -3.18055e-015 3.18055e-015 3.18055e-015 -3.18055e-015 -3.18055e-015 4.77083e-015 -0.0127935 0.00231412 8.07666e-005 3.44292e-006 3.63851e-007 -3.67518e-007 -3.18055e-015 -3.18055e-015 4.77083e-015 -0.0160419 0.00299027 0.000850902 6.36111e-015 3.18055e-015 7.95139e-015 -3.18055e-015 -3.18055e-015 4.77083e-015 -0.0125589 0.00311621 0.00281898 -1.01711e-005 1.61408e-006 -4.35126e-006 -3.18055e-015 -3.18055e-015 4.77083e-015 -0 0 3.18055e-015 -3.18055e-015 3.18055e-015 3.18055e-015 17.5389 -18.0987 0.852098 -30.0875 -5.44334 -20.5812 80.3066 -45.8118 60.0058 27.0193 5.81536 0.695213 3.67752e-015 1.59028e-015 -3.18055e-015 3.97569e-016 1.59028e-015 -1.59028e-015 -3.47873e-015 1.59028e-015 -3.97569e-015 3.67752e-015 1.59028e-015 -3.18055e-015 0.0129172 0.00231086 -8.74675e-005 -1.48128e-007 -8.0203e-007 -8.38948e-007 3.67752e-015 1.59028e-015 -3.18055e-015 0.0163558 0.0030368 -0.0008732 1.0138e-014 0 -0 3.67752e-015 1.59028e-015 -3.18055e-015 0.0145474 0.00366932 -0.00325491 2.4696e-006 -2.18866e-007 -5.88751e-007 3.67752e-015 1.59028e-015 -3.18055e-015 3.97569e-016 1.59028e-015 -1.59028e-015 -3.47873e-015 1.59028e-015 -3.97569e-015 -0.871522 -8.26928 10.415 13.4382 32.1721 -25.3558 4.13818 19.039 -6.15053 -1.68967e-015 1.27222e-014 3.97569e-016 2.9158 -10.3386 -4.45021 -15.1526 37.6146 26.91 6.24671 19.6433 -2.37789 1.38479e-006 2.5941e-006 1.52852e-006 
-0.928408 2.88044 10.1665 -0 -87.5567 -0 0.570039 -1.55761 -0.4561 1.12827 -3.11966 -0.897165 1.12828 -3.11967 -0.897169 19.6217 1.49472 0.365034 9.54504 -3.19082 0.856243 -25.3352 0.824901 -30.4652 37.2441 -7.13167 27.1276 0.0726042 -22.5543 -5.88749 -49.5221 9.07098 -7.13544 2.28501e-006 -4.13472e-014 -2.38729e-006 6.68617e-006 4.72754e-006 5.2742e-006 1.1259e-006 2.80238e-006 -4.40029e-006 2.28501e-006 -4.13472e-014 -2.38729e-006 -0.0128266 0.0023338 8.08225e-005 -1.12329e-005 2.72974e-006 -4.26992e-006 2.28501e-006 -4.13472e-014 -2.38729e-006 -0.0160282 0.0029966 0.000867587 1.14245e-006 3.45336e-007 -1.19358e-006 2.28501e-006 -4.13472e-014 -2.38729e-006 -0.0125725 0.00312007 0.00282124 1.14248e-006 1.59343e-006 -1.19356e-006 2.28501e-006 -4.13472e-014 -2.38729e-006 6.68617e-006 4.72754e-006 5.2742e-006 1.1259e-006 2.80238e-006 -4.40029e-006 17.5737 -17.8762 0.767537 -30.0875 -5.44335 -20.5811 80.3065 -45.8119 60.0057 27.0194 5.81537 0.695222 -2.68359e-015 0 -7.95139e-016 -2.18663e-015 -1.59028e-015 3.18055e-015 -2.08724e-015 -1.59028e-015 7.95139e-016 -2.68359e-015 0 -7.95139e-016 0.012927 0.00231681 -9.01914e-005 -5.66536e-015 -1.59028e-015 -7.95139e-016 -2.68359e-015 0 -7.95139e-016 0.0162976 0.00302928 -0.000872816 5.1684e-015 1.59028e-015 2.38542e-015 -2.68359e-015 0 -7.95139e-016 0.0145986 0.00368503 -0.00326553 1.07344e-014 1.59028e-015 -2.38542e-015 -2.68359e-015 0 -7.95139e-016 -2.18663e-015 -1.59028e-015 3.18055e-015 -2.08724e-015 -1.59028e-015 7.95139e-016 -1.08247 -8.48232 9.70095 13.4397 32.1728 -25.367 3.66325 19.0962 -5.3646 -6.14308e-006 1.10471e-005 1.06812e-007 3.11449 -10.5369 -3.87994 -15.155 37.6197 26.9191 6.6492 19.5862 -2.97234 1.52548e-006 5.27812e-006 3.53909e-007 
-0.928353 2.80289 10.1751 -0 -87.4063 -0 0.570257 -1.64596 -0.451159 1.12822 -3.29628 -0.88645 1.12822 -3.29627 -0.886449 19.7029 1.35174 0.362605 9.63286 -3.29207 0.860803 -25.3904 1.01331 -30.3666 37.2441 -7.1316 27.1276 0.0725946 -22.5543 -5.88751 -49.5221 9.07096 -7.13546 -1.69789e-005 2.83815e-006 -4.68993e-006 1.14068e-006 3.44488e-007 -1.19565e-006 1.00897e-005 -3.06315e-006 5.45176e-006 -1.69789e-005 2.83815e-006 -4.68993e-006 -0.0128048 0.00233148 9.31674e-005 2.19453e-008 -5.57082e-006 3.20603e-006 -1.69789e-005 2.83815e-006 -4.68993e-006 -0.0160425 0.00299426 0.00085527 -1.14062e-006 -3.4451e-007 1.19558e-006 -1.69789e-005 2.83815e-006 -4.68993e-006 -0.0125794 0.00312462 0.0028239 -1.14065e-006 -7.54302e-007 1.19556e-006 -1.69789e-005 2.83815e-006 -4.68993e-006 1.14068e-006 3.44488e-007 -1.19565e-006 1.00897e-005 -3.06315e-006 5.45176e-006 17.6089 -17.6538 0.682943 -30.0875 -5.44334 -20.5811 80.3065 -45.8119 60.0057 27.0194 5.81537 0.695249 -1.16743e-005 3.74677e-007 1.14362e-006 2.0094e-005 2.07849e-006 -4.69171e-006 -2.28627e-005 -2.69119e-006 3.61037e-006 -1.16743e-005 3.74677e-007 1.14362e-006 0.012996 0.00231925 -9.08048e-005 2.28602e-015 1.59028e-015 2.38542e-015 -1.16743e-005 3.74677e-007 1.14362e-006 0.0163198 0.00302953 -0.000872924 2.68359e-015 -1.59028e-015 1.59028e-015 -1.16743e-005 3.74677e-007 1.14362e-006 0.0145902 0.00367822 -0.00326407 -2.24088e-006 6.01777e-007 1.85318e-006 -1.16743e-005 3.74677e-007 1.14362e-006 2.0094e-005 2.07849e-006 -4.69171e-006 -2.28627e-005 -2.69119e-006 3.61037e-006 -1.29622 -8.69717 8.98593 13.4426 32.1778 -25.3795 3.18757 19.147 -4.57821 5.7623e-007 8.9553e-008 6.29727e-007 3.31544 -10.73 -3.30858 -15.1564 37.6216 26.9269 7.05078 19.5254 -3.56596 -2.38542e-015 -3.18055e-015 -0 
